# xmcd
#
# Track frame offsets:
#	150
#	6297
#	59544
#	102659
#	113745
#	127667
#	156410
#	183270
#	205151
#	238726
#	272278
#
# Disc length: 4118 seconds
#
# Revision: 1
# Processed by: cddbd v1.5.1PL2 Copyright (c) Steve Scherf et al.
# Submitted via: EasyCDDAExtractor 9.0.0.1
#
DISCID=9110140b
DTITLE=Rainbow - Folkets Park Lidköping 09-08-96 Disc 1
DYEAR=1996
DGENRE=Hard Rock
TTITLE0=Over The Rainbow
TTITLE1=Long Live Rock and Roll 
TTITLE2=Mistreated
TTITLE3=Traditional Song
TTITLE4=Wolf To The Moon
TTITLE5=Difficult To Cure
TTITLE6=Still I'm Sad
TTITLE7=Man On The Silver Mountain
TTITLE8=Temple Of The King
TTITLE9=Black Masquerade
TTITLE10=Ariel
EXTD=
EXTT0=
EXTT1=
EXTT2=
EXTT3=
EXTT4=
EXTT5=
EXTT6=
EXTT7=
EXTT8=
EXTT9=
EXTT10=
PLAYORDER=
